<?xml version="1.0" encoding="UTF-8" standalone="no"?>
<!DOCTYPE svg PUBLIC "-//W3C//DTD SVG 1.1//EN" "http://www.w3.org/Graphics/SVG/1.1/DTD/svg11.dtd">
<svg width="100%" height="100%" viewBox="0 0 100 100" version="1.1" xmlns="http://www.w3.org/2000/svg" xmlns:xlink="http://www.w3.org/1999/xlink" xml:space="preserve" xmlns:serif="http://www.serif.com/" style="fill-rule:evenodd;clip-rule:evenodd;stroke-linejoin:round;stroke-miterlimit:2;">
    <g>
        <rect x="0" y="0" width="99.609" height="99.658" style="fill-opacity:0;"/>
        <path d="M49.805,99.609C77.051,99.609 99.609,77.002 99.609,49.805C99.609,22.559 77.002,0 49.756,0C22.559,0 0,22.559 0,49.805C0,77.002 22.607,99.609 49.805,99.609ZM49.805,91.309C26.758,91.309 8.35,72.852 8.35,49.805C8.35,26.758 26.709,8.301 49.756,8.301C72.803,8.301 91.309,26.758 91.309,49.805C91.309,72.852 72.852,91.309 49.805,91.309ZM44.434,72.998C46.045,72.998 47.412,72.217 48.389,70.703L70.703,35.596C71.24,34.619 71.875,33.545 71.875,32.471C71.875,30.273 69.922,28.857 67.871,28.857C66.65,28.857 65.43,29.639 64.502,31.055L44.238,63.574L34.619,51.123C33.447,49.561 32.373,49.17 31.006,49.17C28.906,49.17 27.246,50.879 27.246,53.027C27.246,54.102 27.686,55.127 28.369,56.055L40.283,70.703C41.504,72.315 42.822,72.998 44.434,72.998Z" style="fill:white;fill-opacity:0.85;fill-rule:nonzero;"/>
    </g>
</svg>
