<?xml version="1.0" encoding="UTF-8" standalone="no"?>
<!DOCTYPE svg PUBLIC "-//W3C//DTD SVG 1.1//EN" "http://www.w3.org/Graphics/SVG/1.1/DTD/svg11.dtd">
<svg width="100%" height="100%" viewBox="0 0 400 400" version="1.1" xmlns="http://www.w3.org/2000/svg" xmlns:xlink="http://www.w3.org/1999/xlink" xml:space="preserve" xmlns:serif="http://www.serif.com/" style="fill-rule:evenodd;clip-rule:evenodd;stroke-linejoin:round;stroke-miterlimit:2;">
    <g id="svgg">
        <g id="path1" transform="matrix(1.30112,0,0,1.29128,-57.1944,-50.6479)">
            <path d="M127.495,256.038C127.572,256.068 127.695,256.133 127.86,256.232C128.124,256.317 128.423,256.164 128.67,256.038C128.67,256.038 135.49,263.228 127.86,256.232C127.74,256.194 127.618,256.129 127.495,256.038C131.87,262.825 147.826,277.357 153.78,282.58C162.782,290.476 172.249,297.84 181.1,305.905C184.945,309.408 193.199,313.284 200.387,310.647C203.32,309.572 205.88,307.649 208.472,305.905C211.063,304.16 213.425,302.096 215.908,300.2C229.368,289.925 242.657,279.422 256.3,269.392C260.278,266.468 274.843,255.76 280.079,251.91C280.079,251.91 286.107,230.412 286.107,214.473C286.107,206.968 290.572,202.52 292.166,195.186C293.851,187.437 291.133,177.109 292.166,169.247C293.144,161.807 292.757,152.546 289.662,145.536C288.274,142.393 285.432,140.105 283.597,137.2C283.171,136.525 286.01,139.292 285.396,138.781C279.317,133.723 273.394,128.473 267.2,123.556C252.953,112.245 238.614,101.047 224.084,90.103C216.776,84.599 209.175,79.493 201.698,74.221C200.863,73.632 199.395,72.333 198.154,73.294C176.157,90.303 154.649,107.939 132.67,124.971C124.727,131.126 110.576,133.113 106.038,142.831L104.63,145.847L104.683,156.647C104.712,162.587 104.905,168.257 105.112,169.247L105.112,179.238L105.532,169.547C105.562,168.521 106.157,179.561 106.381,180.562C106.917,182.957 106.934,185.446 107.42,187.851C108.286,192.139 109.288,196.402 110.433,200.624C114.762,216.58 119.335,232.469 123.84,248.377C124.477,250.625 125.389,254.491 127.495,256.038ZM160.162,290.58C160.431,290.883 160.734,291.164 161.085,291.37C161.176,291.423 161.529,291.533 161.492,291.309C161.483,291.253 161.473,291.196 161.45,291.144C161.428,291.092 161.394,291.045 161.358,291.001C161.065,290.652 160.687,290.379 160.278,290.182C160.204,290.146 160.115,290.209 160.107,290.286C160.096,290.383 160.092,290.501 160.162,290.58ZM286.276,197.9C286.265,197.941 283.615,196.788 283.597,196.827C283.572,196.883 286.155,198.003 286.149,197.98C286.128,197.884 286.114,197.786 286.107,197.688C286.088,197.416 286.089,196.984 286.107,196.712C286.114,196.613 286.13,196.515 286.147,196.417C286.152,196.385 289.634,196.695 289.662,196.712C289.827,196.811 286.33,196.675 286.332,196.827C286.337,197.183 286.367,197.55 286.276,197.9ZM285.6,139.514C285.6,139.704 285.741,139.858 285.852,139.993C286.09,140.284 286.18,140.385 286.458,140.638C286.617,140.783 286.785,140.917 286.944,141.062C286.994,141.107 287.053,141.234 287.148,141.191C287.236,141.151 287.124,141.047 287.106,141.014C287.019,140.852 286.948,140.682 286.856,140.522C286.632,140.131 286.387,139.735 286.037,139.442C285.981,139.396 285.694,139.159 285.633,139.356C285.617,139.407 285.6,139.46 285.6,139.514ZM281.6,135.4C281.717,135.524 281.829,135.653 281.934,135.788C282.012,135.889 282.087,135.994 282.148,136.106C282.184,136.173 282.209,136.247 282.224,136.321C282.233,136.367 282.188,136.407 282.145,136.4C282.074,136.388 282.003,136.367 281.938,136.336C281.834,136.287 281.735,136.23 281.641,136.164C281.114,135.793 280.6,135.399 280.167,134.918C280.09,134.833 279.891,134.515 280.079,134.436C280.158,134.403 280.28,134.426 280.351,134.439C280.395,134.447 280.44,134.455 280.48,134.474C280.93,134.695 281.259,135.037 281.6,135.4ZM274.201,129.602C274.246,129.674 274.287,129.751 274.312,129.832C274.33,129.892 274.312,130.018 274.221,130.008C274.05,129.99 273.955,129.959 273.811,129.863C273.275,129.505 272.81,129.045 272.436,128.521C272.347,128.396 272.581,128.491 272.586,128.494C272.752,128.572 272.916,128.657 273.078,128.744C273.34,128.885 273.532,129.007 273.77,129.186C273.896,129.281 274.116,129.464 274.201,129.602ZM205.6,76.6C205.791,76.831 206.023,77.038 206.303,77.153C206.349,77.171 206.397,77.187 206.447,77.191C206.496,77.195 206.545,77.184 206.593,77.175C206.759,77.143 206.595,76.887 206.564,76.835C206.514,76.754 206.458,76.676 206.4,76.6C206.216,76.362 205.971,76.171 205.697,76.047C205.663,76.032 205.628,76.021 205.592,76.015C205.556,76.009 205.518,76.007 205.481,76.011C205.391,76.022 205.338,76.125 205.368,76.207C205.441,76.403 205.467,76.439 205.6,76.6ZM201.167,72.937C201.583,73.455 202.162,73.808 202.708,74.168C202.804,74.232 202.957,74.32 203.078,74.325C203.14,74.327 203.253,74.252 203.187,74.18C202.812,73.774 202.35,73.457 201.9,73.143C201.716,73.014 201.531,72.886 201.34,72.767C201.243,72.708 201.141,72.655 201.037,72.61C200.99,72.589 200.952,72.613 200.982,72.667C201.036,72.762 201.099,72.852 201.167,72.937Z" style="fill:rgb(31,202,225);"/>
        </g>
        <g id="black" transform="matrix(1.27454,0,0,1.27454,-54.4132,-45.4324)">
            <path d="M296.849,143.384C295.277,147.47 298.411,152.022 298.534,156.392C298.668,161.146 298.537,165.934 297.872,170.644C295.585,186.856 292.706,202.984 289.692,219.079C287.785,229.262 284.676,245.638 278.704,255.302C272.612,265.162 260.745,273.453 252,280.077C237.778,290.848 223.549,301.616 209.037,311.999C206.365,313.911 203.682,316.105 200.491,316.93C193.594,318.712 187.617,310.684 181.906,306.462C172.408,299.44 163.033,292.254 153.589,285.161C141.094,275.777 125.668,266.91 118.429,252.425C112.647,240.854 108.303,218.188 106.056,207.318C103.697,195.901 101.153,184.479 99.899,172.892C99.378,168.078 99.672,163.169 98.77,158.411C98.484,156.904 97.99,161.416 98.013,162.949C98.177,173.828 98.908,185.361 100.286,196.317C103.395,221.028 103.583,248.946 117.518,270.742C123.912,280.742 135.803,287.411 145.563,293.814C156.507,300.994 167.112,308.604 178.127,315.863C184.651,320.162 191.503,327.865 199.605,329.296C206.229,330.466 215.609,321.432 220.302,318.149C230.698,310.877 241.121,303.595 251.851,296.738C262.035,290.23 273.938,279.76 282.12,270.742C294.056,257.587 294.966,243.522 296.596,226.476C297.654,215.413 299.419,203.886 300.095,192.713C300.803,181 301.705,170.422 300.823,158.949C300.55,155.396 299.504,151.722 298.6,148.276C298.249,146.937 298.066,145.55 297.599,144.246C297.471,143.889 296.986,143.031 296.849,143.384M160.49,160.827C160.49,161.112 159.59,162.002 159.449,162.312C158.813,163.713 158.598,165.918 158.99,167.416C159.273,168.496 162.04,168.604 162.656,168.819C164.06,169.308 165.226,171.421 165.84,172.595C166.361,173.592 166.892,175.199 166.887,176.361C166.885,176.782 166.702,177.185 166.582,177.589C166.529,177.766 166.253,177.957 166.369,178.102C166.49,178.254 166.778,178.141 166.956,178.06C167.813,177.669 170.423,176.307 171.3,175.422C171.554,175.165 171.819,174.824 171.803,174.464C171.781,173.993 171.466,173.571 171.198,173.18C169.411,170.572 167.183,168.284 165.341,165.714C164.444,164.463 163.892,162.985 162.941,161.774C162.736,161.514 162.204,161.101 161.847,161.041C161.669,161.012 161.49,161.403 161.363,161.277C161.166,161.081 161.296,160.71 161.148,160.476C160.843,159.995 160.49,160.494 160.49,160.827M143.468,166.354C142.244,167.127 141.043,168.09 140.184,169.267C137.568,172.848 139.741,177.052 142.717,179.644C144.23,180.962 145.807,182.209 147.425,183.398C147.77,183.653 148.205,184.156 148.586,183.958C148.894,183.799 148.24,183.363 148.062,183.068C147.881,182.77 147.647,182.499 147.508,182.18C147.006,181.025 147.009,179.477 147.167,178.326C147.487,175.982 148.071,175.042 149.416,173.165C150.025,172.315 150.826,171.804 151.163,170.793C151.508,169.757 149.709,167.973 149.348,167.441C149.008,166.94 148.834,166.29 148.35,165.921C146.841,164.773 144.815,165.504 143.468,166.354M197.777,166.275C196.179,166.428 196.424,167.464 195.536,168.757L194.542,170.205L195.44,171.178C196.686,172.527 198.049,173.767 199.404,175.011C201.156,176.62 202.948,178.188 204.758,179.734C206.328,181.075 207.904,182.411 209.541,183.67C210.249,184.215 210.902,185.292 211.787,185.141C212.415,185.034 211.308,183.967 210.983,183.424C210.329,182.334 209.556,181.318 208.854,180.257C207.653,178.439 206.404,176.65 205.273,174.789C203.517,171.899 202.731,169.015 200.001,167.105C199.232,166.568 198.786,166.18 197.777,166.275M253.917,181.237C250.861,184.157 247.569,186.842 244.164,189.356C240.2,192.281 235.896,194.729 231.842,197.531C231.111,198.035 230.3,198.519 229.822,199.264C229.365,199.976 230.867,200.62 231.536,201.143C232.848,202.169 234.171,203.181 235.505,204.178C237.354,205.559 239.169,206.988 241.087,208.274C241.97,208.867 243.769,210.513 244.043,209.492C244.268,208.658 242.771,208.084 242.789,207.221C242.807,206.301 243.271,205.41 243.781,204.641C249.033,196.712 261.3,194.052 264.825,184.861C265.242,183.773 262.994,182.106 262.251,181.574C261.813,181.261 258.331,178.218 257.222,178.782C255.997,179.405 254.908,180.29 253.917,181.237M182.853,182.529C180.624,184.201 178.43,185.92 176.21,187.604C174.366,189.003 172.515,190.393 170.66,191.777C168.748,193.205 166.173,194.029 164.909,196.042C164.418,196.824 165.922,197.611 166.61,198.229C169.007,200.38 174.408,204.532 177.585,206.295C178.916,207.034 179.306,205.339 180.367,205.027C182.445,204.417 184.675,204.488 186.786,204.006C190.537,203.151 194.196,201.875 197.993,201.249C198.673,201.137 199.49,201.347 199.973,201.833C201.09,202.956 198.861,205.26 198.533,205.587C197.943,206.177 194.62,209.105 193.065,209.142C191.96,209.169 190.936,208.551 189.867,208.269C189.085,208.064 188.119,207.149 187.515,207.681C187.326,207.847 188.714,211.194 188.737,211.516C188.81,212.519 187.214,216.42 190.162,214.519C192.854,212.785 204.466,204.395 206.403,202.969C207.475,202.18 209.355,201.825 209.554,200.518C209.727,199.384 208.037,198.772 207.157,198.026C205.095,196.274 202.872,194.718 200.748,193.04C197.931,190.814 195.173,188.516 192.337,186.315C188.527,183.357 186.681,179.66 182.853,182.529M133.023,189.3C133.823,190.091 134.222,191.541 134.781,192.435C136.266,194.809 136.342,194.734 137.756,197.13C138.014,197.568 138.438,198.574 139.107,198.745C140.114,199.002 141.591,197.64 142.214,197.078C142.923,196.438 141.896,195.666 141.467,195.297C139.206,193.351 136.743,191.647 134.348,189.864C133.832,189.48 133.31,189.102 132.76,188.769C132.714,188.741 132.581,188.76 132.604,188.807C132.7,189 132.87,189.148 133.023,189.3M191.259,194.485C191.376,194.482 191.89,194.461 191.906,194.754C191.94,195.382 190.127,196.263 190.066,196.293C188.536,197.048 186.84,197.479 185.129,197.471C184.82,197.47 184.264,197.358 184.151,196.998C183.929,196.29 184.929,195.462 185.415,195.144C186.336,194.541 187.482,194.234 188.582,194.24C189.765,194.246 189.749,194.528 191.259,194.485M148.973,206.736C145.633,209.573 143.224,211.502 141.106,215.152C140.711,215.833 140.585,217.383 140.939,218.118C141.462,219.206 142.076,220.28 142.901,221.165C144.257,222.618 146.572,224.781 148.768,225.635C148.868,225.674 149.046,225.666 149.083,225.567C149.331,224.906 148.617,224.201 148.644,223.497C148.667,222.874 148.845,222.254 149.095,221.682C150.241,219.062 152.623,218.131 155.377,217.74C158.005,217.367 160.115,217.626 162.563,218.512C163.791,218.956 163.757,221.178 165.232,220.803C166.227,220.55 167.184,220.153 168.107,219.707C168.738,219.403 169.378,219.061 169.868,218.563C171.443,216.962 165.31,213.389 165.283,213.367C162.54,211.203 159.807,209.028 157.069,206.859C156.573,206.466 154.17,204.19 152.905,204.171C151.658,204.152 149.475,206.31 148.973,206.736M216.879,209.662C212.277,213.346 207.195,216.402 202.371,219.798C200.923,220.816 197.357,221.29 198.064,222.903C199.547,226.285 203.448,228.174 206.773,229.838C207.738,230.321 208.836,229.191 209.841,228.795C214.95,226.783 218.126,221.499 223.799,221.156C228.925,220.846 231.542,222.507 236.093,225.372C237.875,226.494 239.452,227.916 241.006,229.33C241.442,229.726 241.479,230.544 242.025,230.769C245.043,232.014 251.397,229.166 253.312,227.052C254.926,225.271 256.744,221.682 255.174,219.294C254.285,217.941 254.018,222.378 252.973,223.617C250.821,226.168 246.798,228.248 243.394,226.917C240.849,225.922 240.256,224.384 238.305,222.517C233.571,217.985 230.232,215.483 224.711,211.355C220.862,208.477 220.437,206.814 216.879,209.662M126.321,226.247L125.422,226.967L126.118,231.764C126.629,235.285 127.295,242.084 130.067,245.634C130.24,245.856 130.33,245.091 130.584,244.969C131.898,244.336 133.215,243.414 134.676,243.414C136.76,243.415 141.889,247.431 143.174,248.368C156.862,258.337 170.281,268.639 184.186,278.367C189.476,282.068 198.052,290.171 205.727,287.487C212.084,285.264 219.483,278.141 224.778,274.215C235.711,266.109 246.565,257.918 257.493,249.805C260.131,247.847 262.878,245.883 265.788,244.325C267.96,243.163 270.759,243.213 271.836,240.62C272.88,238.105 273.537,235.442 274.177,232.797C274.58,231.132 275.08,229.427 274.96,227.719C274.91,226.998 274.38,225.69 273.698,225.947C267.92,228.125 261.963,233.066 256.918,236.77C241.793,247.876 226.663,258.974 211.499,270.027C210.333,270.877 203.183,277.363 199.215,277.292C192.103,277.166 186.844,270.259 181.194,265.984C164.367,253.249 147.752,240.243 130.976,227.444C129.414,226.252 128.265,224.69 126.321,226.247M184.113,231.834C179.353,238.617 170.393,239.887 164.848,234.564L163.261,233.042L163.112,234.601C162.686,239.003 169.036,241.296 172.567,244.007C175.176,246.009 177.819,247.973 180.537,249.829C183.029,251.53 182.188,248.755 183.063,247.535C184.456,245.594 188.769,243.35 191.163,244.124C196.828,245.957 201.712,250.484 206.098,254.265C206.451,254.57 207.769,256.729 208.155,256.636C209.418,256.33 210.463,255.429 211.506,254.661C212.454,253.963 214.727,253.253 214.095,252.266C212.038,249.054 208.247,247.331 205.27,244.926C201.103,241.558 196.887,238.25 192.665,234.949C187.897,231.222 186.975,227.755 184.113,231.834M220.755,238.708C220.532,239.019 220.321,239.34 220.135,239.674C219.576,240.679 221.166,241.538 221.74,241.938C222.362,242.373 223.239,242.966 224.011,243.197C224.759,243.421 225.146,243.113 224.936,242.349C224.848,242.032 224.707,241.729 224.55,241.44C224.328,241.031 224.075,240.64 223.804,240.261C223.454,239.772 223.079,239.299 222.69,238.839L221.593,237.545L220.755,238.708" style="fill:rgb(20,37,37);fill-opacity:0.69;"/>
        </g>
        <g id="path3" transform="matrix(1.27454,0,0,1.27454,-54.4132,-45.4324)">
            <path d="M289.692,195.636C287.785,185.521 284.676,169.253 278.704,159.653C272.612,149.86 260.745,141.623 252,135.044C237.778,124.345 223.549,113.648 209.037,103.334C206.365,101.435 203.682,99.255 200.491,98.436C193.594,96.666 187.617,104.641 181.906,108.834C172.408,115.81 163.033,122.948 153.589,129.994C141.094,139.315 125.668,148.123 118.429,162.512C112.647,174.006 111.562,195.521 109.316,206.318C106.956,217.66 107.364,230.106 121.3,251.901C127.693,261.901 135.584,272.411 145.344,278.814C156.289,285.994 166.894,293.604 177.908,300.863C184.432,305.162 191.285,312.865 199.386,314.296C206.01,315.466 215.39,306.432 220.083,303.149C230.479,295.877 240.902,288.595 251.632,281.738C261.816,275.23 270.522,260.919 278.704,251.901C290.64,238.747 288.062,241.522 289.692,224.476" style="fill:rgb(20,37,37);"/>
        </g>
        <g id="Layer1">
            <g transform="matrix(0.926936,0,0,0.926936,1.66637,42.9741)">
                <ellipse cx="126" cy="230.5" rx="5" ry="5.5" style="fill:rgb(211,142,16);"/>
            </g>
            <g transform="matrix(0.926936,0,0,0.926936,-8.52992,32.7778)">
                <ellipse cx="126" cy="230.5" rx="5" ry="5.5" style="fill:rgb(211,142,16);"/>
            </g>
            <g transform="matrix(1.27454,0,0,1.27454,-28.9225,-26.3143)">
                <ellipse cx="126" cy="230.5" rx="5" ry="5.5" style="fill:rgb(211,142,16);"/>
            </g>
            <g transform="matrix(1.62214,0,0,1.62214,-54.4132,-93.0537)">
                <ellipse cx="126" cy="230.5" rx="5" ry="5.5" style="fill:rgb(211,142,16);"/>
            </g>
            <g transform="matrix(1.9118,0,0,1.85387,-70.3449,-131.174)">
                <ellipse cx="126" cy="230.5" rx="5" ry="5.5" style="fill:rgb(211,142,16);"/>
            </g>
            <g transform="matrix(-0.926936,0,0,0.926936,400.596,42.9741)">
                <ellipse cx="126" cy="230.5" rx="5" ry="5.5" style="fill:rgb(211,142,16);"/>
            </g>
            <g transform="matrix(-0.926936,0,0,0.926936,410.793,32.7778)">
                <ellipse cx="126" cy="230.5" rx="5" ry="5.5" style="fill:rgb(211,142,16);"/>
            </g>
            <g transform="matrix(-1.27454,0,0,1.27454,431.185,-26.3143)">
                <ellipse cx="126" cy="230.5" rx="5" ry="5.5" style="fill:rgb(211,142,16);"/>
            </g>
            <g transform="matrix(-1.62214,0,0,1.62214,456.676,-93.0537)">
                <ellipse cx="126" cy="230.5" rx="5" ry="5.5" style="fill:rgb(211,142,16);"/>
            </g>
            <g transform="matrix(-1.9118,0,0,1.85387,472.608,-131.174)">
                <ellipse cx="126" cy="230.5" rx="5" ry="5.5" style="fill:rgb(211,142,16);"/>
            </g>
            <g transform="matrix(3.70412,0,0,3.59188,-265.548,-522.225)">
                <ellipse cx="126" cy="230.5" rx="5" ry="5.5" style="fill:rgb(211,142,16);"/>
            </g>
        </g>
        <g id="path2" transform="matrix(1.27454,0,0,1.27454,-54.4132,-45.4324)">
            <path d="M196.778,58.109C195.36,59.269 193.726,60.574 193.146,61.009C192.567,61.444 188.157,64.888 183.346,68.663C178.536,72.437 167.727,80.897 159.327,87.463C150.927,94.028 138.084,104.08 130.787,109.8C123.491,115.52 115.513,121.625 113.06,123.368C92.109,138.246 91.273,153.507 107.347,227.6C111.388,246.23 113.289,251.653 118.701,260C124.055,268.257 127.51,271.424 148,286.855C154.27,291.577 162.91,298.119 167.2,301.393C194.154,321.964 196.266,323.471 198.643,323.827C202.584,324.418 201.931,324.832 227.392,305.6C236.567,298.67 249.052,289.246 255.137,284.658C275.463,269.332 279.901,264.697 285.413,253.037C287.982,247.603 289.03,244.552 291.522,232.534C292.214,229.196 293.018,225.165 293.997,220.2C307.856,149.911 306.669,138.577 283.605,121.002C276.343,115.467 274.552,114.068 249.6,94.446C241.35,87.957 232.71,81.185 230.4,79.397C221.485,72.494 208.032,61.971 204.4,59.06C199.869,55.429 200.029,55.449 196.778,58.109ZM129.623,230.041C134.953,235.129 145.971,243.718 172,263.08C178.71,268.072 186.72,274.038 189.8,276.339C200.242,284.141 199.088,284.293 214.063,273.142C219.486,269.104 226.752,263.73 230.209,261.2C239.855,254.141 246.794,249.011 258.8,240.061C274.88,228.074 274.995,228 277.468,228C280.206,228 280.295,228.689 278.591,236.619C276.282,247.368 273.922,252.428 268,259.326C266.83,260.69 259.806,266.8 259.409,266.8C259.26,266.8 258.59,267.348 257.92,268.019C257.25,268.689 255.687,269.926 254.447,270.768C253.207,271.61 251.591,272.862 250.854,273.549C250.118,274.237 249.387,274.8 249.231,274.8C248.836,274.8 241.831,280.391 241.667,280.838C241.593,281.037 241.319,281.2 241.056,281.2C240.626,281.2 236.669,284.138 233.937,286.487C233.353,286.989 232.611,287.58 232.289,287.8C231.967,288.02 230.66,289.01 229.386,290C226.575,292.182 223.678,294.315 221,296.173C219.9,296.936 218.439,298.064 217.753,298.68C217.068,299.296 216.237,299.98 215.908,300.2C215.579,300.42 205.452,306.721 202.8,309.381C201.195,310.99 199.704,311.064 197.6,309.636C196.61,308.964 195.62,308.408 195.4,308.4C195.18,308.393 194.576,307.939 194.058,307.393C193.54,306.847 192.874,306.4 192.578,306.4C192.282,306.4 191.896,306.165 191.72,305.878C191.544,305.591 190.68,304.919 189.8,304.384C188.92,303.849 187.258,302.644 186.106,301.706C184.954,300.768 183.911,300 183.789,300C183.667,300 183.169,299.623 182.683,299.162C182.197,298.701 180.99,297.77 180,297.093C179.01,296.416 177.39,295.212 176.4,294.417C175.41,293.622 173.88,292.49 173,291.901C171.375,290.814 170.221,289.932 162.52,283.899C160.144,282.037 156.49,279.232 154.4,277.664C152.31,276.096 150.24,274.53 149.8,274.184C149.36,273.838 148.222,272.98 147.271,272.277C146.32,271.575 144.43,270.095 143.071,268.988C141.712,267.881 140.15,266.687 139.6,266.333C135.284,263.559 128.861,255.858 126.958,251.173C125.145,246.713 122.135,231.795 122.641,229.779C123.474,226.459 125.967,226.552 129.623,230.041ZM152.811,205.087C153.355,205.464 156.612,208.029 160.05,210.787C163.487,213.544 167.312,216.592 168.55,217.56C171.131,219.579 171.372,220.523 169.56,221.519C162.023,225.661 160.274,232.247 165.36,237.333C170.471,242.445 180.418,240.364 183.98,233.439C185.294,230.883 185.333,230.9 193.434,237.503C197.412,240.746 204.207,246.176 208.534,249.569C212.86,252.962 216.4,255.971 216.4,256.256C216.4,256.541 214.645,258.175 212.5,259.887C210.355,261.599 208.381,263.18 208.112,263.4C207.844,263.62 206.706,264.43 205.583,265.2C204.46,265.97 202.896,267.098 202.107,267.707C200.557,268.903 199.823,268.875 197.938,267.548C197.354,267.136 196.774,266.8 196.649,266.8C196.524,266.8 194.382,265.225 191.889,263.3C189.395,261.375 186.857,259.44 186.248,259C185.638,258.56 183.038,256.608 180.47,254.663C177.901,252.717 169.091,246.093 160.892,239.941C133.199,219.166 133.229,219.254 149.172,205.886C151.188,204.195 151.446,204.139 152.811,205.087ZM203,73.957C203.88,74.636 204.78,75.335 205,75.511C205.22,75.688 207.38,77.352 209.8,79.21C212.22,81.068 214.38,82.735 214.6,82.914C214.82,83.094 216.8,84.588 219,86.236C221.2,87.883 223.586,89.749 224.301,90.382C225.017,91.016 225.742,91.594 225.913,91.667C226.262,91.817 232.819,96.816 240.661,102.911C249.714,109.947 258.116,116.508 258.771,117.051C259.117,117.339 260.93,118.746 262.8,120.178C264.67,121.611 266.38,122.925 266.6,123.099C266.82,123.273 270.24,125.921 274.2,128.985C289.642,140.931 291.535,144.68 291.071,162.4C290.823,171.845 289.761,181.523 287.646,193.6C287.266,195.766 285.051,205.743 284.559,207.5C284.42,207.995 284.162,208.4 283.985,208.4C283.808,208.4 283.55,208.918 283.411,209.55C282.771,212.463 277.623,215.824 272.6,216.608C270.285,216.969 262.461,220.057 261.418,221.021C260.724,221.662 260.471,222.477 260.26,224.746C259.72,230.549 254.95,235.542 250.989,234.448C250.279,234.252 249.468,234.234 249.186,234.409C248.903,234.583 248.449,234.64 248.176,234.535C247.485,234.27 239.017,239.777 231.052,245.671C227.31,248.44 226.653,248.507 223.812,246.409C220.551,244 220.236,243.4 221.269,241.562C224.546,235.732 216.574,228.735 210.983,232.534C210.12,233.12 209.106,233.6 208.73,233.6C208.023,233.6 198,225.784 198,225.233C198,224.705 199.2,223.811 205.53,219.625C211.426,215.726 216.746,211.882 219.514,209.521C221.271,208.022 220.662,207.731 228.265,213.7C231.979,216.615 236.292,219.943 237.85,221.095C239.409,222.247 241.175,223.898 241.774,224.763C244.765,229.079 249.816,229.98 253.904,226.927C259.34,222.867 256.47,215.175 249.014,213.82C247.144,213.48 246.993,213.378 238.2,206.489C232.21,201.797 230.268,199.941 230.837,199.453C230.927,199.376 233.34,197.906 236.2,196.186C254.518,185.17 263.284,174.906 263.363,164.383C263.418,157.02 261.045,154.115 245.2,142.152C238.217,136.88 227.681,128.605 227.2,128.016C227.09,127.881 225.11,126.164 222.8,124.201C216.734,119.046 208.077,110.469 203.925,105.5C199.803,100.567 199.793,100.563 197.972,103.1C195.333,106.775 182.273,119.355 174.605,125.607C167.613,131.308 154.207,141.498 147.776,146C146.99,146.55 145.464,147.675 144.385,148.5C143.306,149.325 142.253,150 142.045,150C141.837,150 141.607,150.143 141.533,150.318C141.46,150.493 139.241,152.158 136.602,154.018C117.581,167.425 117.934,178.255 137.898,193.808C142.659,197.517 142.65,197.492 139.9,199.534C138.745,200.391 135.64,202.849 133,204.995C128.67,208.515 127,210.199 124.07,213.995C122.505,216.022 119.611,215.338 117.332,212.403C116.039,210.737 113.142,198.453 110.635,184C108.308,170.591 108.236,169.847 108.218,159L108.2,148.6L109.635,145.584C110.516,143.733 111.984,141.582 113.435,140.016C115.454,137.839 117.344,136.237 124.8,130.387C125.35,129.955 127.24,128.526 129,127.21C130.76,125.895 132.65,124.46 133.2,124.021C135.687,122.036 145.306,114.518 148.2,112.297C149.96,110.946 154.037,107.761 157.259,105.22C160.482,102.679 164.616,99.43 166.447,98C169.645,95.503 173.263,92.652 175.8,90.63C177.801,89.035 184.392,83.94 188,81.199C189.87,79.778 191.67,78.399 192,78.133C192.33,77.867 193.41,77.007 194.4,76.222C195.39,75.437 196.418,74.615 196.685,74.395C199.831,71.807 200.179,71.783 203,73.957ZM186.811,181.09C187.355,181.469 190.793,184.214 194.451,187.19C198.109,190.165 203.464,194.455 206.351,196.722C212.559,201.597 212.587,201.679 208.9,204.144C206.41,205.809 204.073,207.491 193.957,214.9C189.509,218.158 189.005,218.208 186.276,215.665C185.134,214.601 179.928,210.545 174.708,206.653C161.151,196.546 161.873,197.671 166.681,194.149C172.579,189.827 179.403,184.652 181.4,182.986C184.736,180.204 185.271,180.016 186.811,181.09ZM161.059,156.3C163.263,161.291 163.669,162.05 165.963,165.465C167.269,167.409 169.266,170.034 170.399,171.298C173.116,174.327 173.15,174.262 166.196,179.503C162.898,181.988 158.683,185.187 156.828,186.611C152.765,189.731 152.456,189.752 148.957,187.148C136.639,177.98 134.173,173.465 138.25,167.539C139.735,165.38 142.107,163.804 152.6,158.008C153.7,157.4 155.586,156.25 156.791,155.451C159.658,153.552 159.864,153.593 161.059,156.3ZM198.541,133.04C198.612,133.422 195.307,146 196.685,154.018C198.762,166.102 212.362,181.976 213.937,184.147C219.192,191.392 216.707,190.192 205,179.832C193.544,169.694 184.109,159.693 180.47,155.282C176.4,150.349 182.565,137.759 188.809,133.04C194.753,128.548 198.094,130.604 198.541,133.04ZM219,136.585C226.564,142.504 244.541,156.3 245.379,162.4C248.192,182.876 229.584,178.207 227.2,171.298C223.54,160.692 223.238,158.255 221.951,154.018C218.386,142.28 202.107,123.491 202.107,123.368C202.107,123.297 217.845,135.682 219,136.585ZM210,149C213.311,149 216,152.361 216,156.5C216,160.639 213.311,164 210,164C206.689,164 204,160.639 204,156.5C204,152.361 206.689,149 210,149Z" style="fill:rgb(229,230,233);stroke:black;stroke-width:0.78px;"/>
        </g>
    </g>
</svg>
